<svg width="82" height="82" viewBox="0 0 82 82" fill="none" xmlns="http://www.w3.org/2000/svg">
<path d="M68.3333 23.9167H13.6667C9.89272 23.9167 6.83333 26.9761 6.83333 30.75V64.9167C6.83333 68.6906 9.89272 71.75 13.6667 71.75H68.3333C72.1073 71.75 75.1667 68.6906 75.1667 64.9167V30.75C75.1667 26.9761 72.1073 23.9167 68.3333 23.9167Z" fill="#0B233B" stroke="#ACEAFF" stroke-width="4" stroke-linecap="round" stroke-linejoin="round"/>
<path d="M54.6667 71.75V17.0833C54.6667 15.271 53.9467 13.5329 52.6652 12.2514C51.3837 10.9699 49.6456 10.25 47.8333 10.25H34.1667C32.3543 10.25 30.6163 10.9699 29.3348 12.2514C28.0533 13.5329 27.3333 15.271 27.3333 17.0833V71.75" fill="#0B233B"/>
<path d="M54.6667 71.75V17.0833C54.6667 15.271 53.9467 13.5329 52.6652 12.2514C51.3837 10.9699 49.6456 10.25 47.8333 10.25H34.1667C32.3543 10.25 30.6163 10.9699 29.3348 12.2514C28.0533 13.5329 27.3333 15.271 27.3333 17.0833V71.75" stroke="#ACEAFF" stroke-width="4" stroke-linecap="round" stroke-linejoin="round"/>
</svg>
