<svg width="73" height="73" viewBox="0 0 73 73" fill="none" xmlns="http://www.w3.org/2000/svg">
<path d="M54.75 9.125C52.3299 9.125 50.0089 10.0864 48.2977 11.7977C46.5864 13.5089 45.625 15.8299 45.625 18.25V54.75C45.625 57.1701 46.5864 59.4911 48.2977 61.2024C50.0089 62.9136 52.3299 63.875 54.75 63.875C57.1701 63.875 59.4911 62.9136 61.2024 61.2024C62.9136 59.4911 63.875 57.1701 63.875 54.75C63.875 52.3299 62.9136 50.0089 61.2024 48.2977C59.4911 46.5864 57.1701 45.625 54.75 45.625H18.25C15.8299 45.625 13.5089 46.5864 11.7977 48.2977C10.0864 50.0089 9.125 52.3299 9.125 54.75C9.125 57.1701 10.0864 59.4911 11.7977 61.2024C13.5089 62.9136 15.8299 63.875 18.25 63.875C20.6701 63.875 22.9911 62.9136 24.7024 61.2024C26.4136 59.4911 27.375 57.1701 27.375 54.75V18.25C27.375 15.8299 26.4136 13.5089 24.7024 11.7977C22.9911 10.0864 20.6701 9.125 18.25 9.125C15.8299 9.125 13.5089 10.0864 11.7977 11.7977C10.0864 13.5089 9.125 15.8299 9.125 18.25C9.125 20.6701 10.0864 22.9911 11.7977 24.7024C13.5089 26.4136 15.8299 27.375 18.25 27.375H54.75C57.1701 27.375 59.4911 26.4136 61.2024 24.7024C62.9136 22.9911 63.875 20.6701 63.875 18.25C63.875 15.8299 62.9136 13.5089 61.2024 11.7977C59.4911 10.0864 57.1701 9.125 54.75 9.125Z" stroke="#ACEAFF" stroke-width="4" stroke-linecap="round" stroke-linejoin="round"/>
</svg>
